<svg xmlns="http://www.w3.org/2000/svg" viewBox="0 0 289.7 549.3"><g transform="translate(-664.4,-111.2)"><path fill="#0d8995" d="M868.37,584.61c4.17,2.78-.77,10.62-3.31,13.92-5.31,6.89-18.91,16.51-27.59,13.04-18.26-14.16-41.99-25.34-60.51-39.73-1.45-.79-1.1-1.55-2.28-.2-1.18,12.39-1.21,25.55,0,37.93,1.28,1.35,2.33,1.14,3.99,1,.22.54.35.98.21,1.1-1.86,1.56-24.32.48-27.13-3.1-3.08,1.64-11.65-4.91-13.98-7.68s-7.35-11.04-5.96-14.29c-.95-.18-.93-1.6,0-2,1.76-25.45,1.16-52.38,0-77.86v-1c34.99-46.38,95.79-66.03,134.56-107.81l1.11-.62c1.17,60.69,1.23,125.08.89,187.3Z"/><path fill="#f1f5f9" d="M818.53,209.26c-3.69.28-7.34.61-10.96,1-.92,2.84.61,10.28,0,13.98,8.96,1.45,16.93,1.11,23.92-1,.55-.62,2.55-2.78,2.99-2.99.04-7.91,11.17-8.32,17.1-5.68.79.35,1.47.68,1.94,1.45,2.04,3.35,2.44,28.35.41,31.55-3.38,5.32-16.77,4.59-18.96-2.17-6.11-5.01-19.93-3.77-27.4-2.18-2.54,10.28,7.17,5.57,13.19,8.25,9.93,4.43,3.33,17.89,6.72,21.22,1.01.99,10.81,4.26,13.9,6.04,4.96,2.86,11.33,7.46,14.04,12.4,1.14.84,3.02,2.4,3.48,3.62,2.01,5.37,3.98,16.94,3.5,22.34-.47,4.01-.62,8.07-.45,12.17-.35,4.39-2.06,7.23-3.54,1.81-.47,1.78-1.59,1.96-2.6.44-5.76-24.6-26.44-34.61-47.49-42.81l.24-2.55c.14-5.61-.09-11.17-.68-16.66-.7-5.27-22.7-3.21-24.29-1.79-1.39,1.25-.25,14.04.05,16.45,1.28,1.54.68,2.1-1,1-4.49,3.26-9.8,5.59-15.91,7.02l-7.01,3.97c.32,2.96-4.36,6.75-6.98,4.99-5.55,4.51-9.95,10.1-13.95,15.97-4.37,7.86-7.65,16-8.97,24.96.76,37.22.41,81.58,0,118.86,2.03,6.06.82,2.86-6.16,7.36-2.76,4.47-6.02,7.32-9.77,8.55l-1.1.07c-1.38-45.33-1.25-91.73-.48-137.33.65-6.98,1.94-13.63,3.57-20.47.99-2.81,2.62-5.37,3.99-7.99,2.59-3.28,8.95-11.64,10.96-15.97,1.86-2.09,2.94-3.13,4.98-4.99,1.59-.97,1.95-.99,1.09-.08,2.74-2.53,5.7-4.83,8.88-6.91,1.91-1.53,2.96-2.71,5.32-4.16,4.87-3,12.29-4.01,14.62-8.82l.45.47-.21-12.61.75-.84c1.64-4.82,6.38-6.85,14.2-6.11l.75-.88c0-2.33.02-4.66,0-6.99-5.65-1.66-17.75-2.61-21.93,2.99-1.15,2.43-1.01,3.36-2.99,5.99l-3.04,2.54c-4.05,1.9-28.55,2.82-32.21.61-4.05-2.45-5.63-3.94-5.82-8.97l.2-29.11c.46-1.36,1.09-1.99,1.99-2.99,6.8-3.56,16.77-3.64,24.51-3.43,10.85.29,13.52.46,18.36,11.42,2.17,3.46,20.57,3.15,21.63,1.83,1.47-1.84.6-11.27-.69-13.81l-9.97-1c-1.06-.53-1.49-.89-1.99-2-1.55-12.93,3-15.24,15.16-14.85,6.03-.38,30.42-.9,34.51,2.38s3.69,11.56-.83,14.47Z"/><path fill="#828282" d="M785.64,160.35c-10.79,1.37-21.71,3.55-31.88,7.5-37.24,14.49-65.64,52.46-69.8,92.31h-8.97c-.59-51.69,34.15-98.88,82.49-115.53,67.86-23.39,140.68,12.4,164.66,79.19,2.66,1.89,20.41-9.04,21.97-7.56l-16.45,61.9-52.32-40.45c-.45-2.03.8-1.38,2-1.93,5.22-2.39,11.79-3.93,16.67-6.33.94-.46,1.65.27,1.17-1.61-11.49-22.02-26.6-40.9-48.45-53.32-14.1-8.01-29.16-12.01-45.16-14.17-5.29-.45-10.65-.42-15.95,0Z"/><path fill="#828282" d="M734.23,453.12c23.83-17.62,48.25-34.42,73.27-50.41,20.7-14.25,46.45-35.46,49.87-61.6l2.03-2.07c.32-2.65,1.23-2.54,1.99,0,.49.07.87.11.88.07,2.98-15.31.3-29.91-3.69-44.3.32-.69.97-.86,1.81-.69,14.17,11.1,21.35,32.63,19.81,50.28-4.51,51.51-70.99,81.86-107.84,108.62-22.68,16.47-44.48,36.18-59.99,59.69-1.45-.95-1.38-1.91-1.54-3.43-1.12-10.22.88-21.59,1.04-31.49.47-.46,1.13-.79,1.99-1,2.71-3.08,5.2-6.49,7.95-9.51"/><path fill="#f1f5f9" d="M883.32,373.98c.81-2.33,2.91-2.47,3.49-.11.27,70.71.1,141.29-.5,211.74-.23,13.07-8.03,24.03-16.94,32.94-2.16,1.69-3.51,2.68-5.98,3.99-8.2,3.78-16.23,5.26-24.1,4.45l.18-1.46c6.97-6.68,4.87-8.65-1.99-13.98,12.98-1.3,30.71-12.55,30.9-26.95v-2c.28-.87.62-.86,1,0,.81-58.12.75-119.64.5-178.59,0-.05-.22.36-.5.9-.28.87-.62.86-1,0-.6-2.5-1.18-6.61,0-8.98,5.28-5.97,11.46-14.81,14.95-21.96Z"/><path fill="#f1f5f9" d="M727.82,510.74l2.01-1.52c-.29,25.45.16,50.87,1.34,76.27l.64,1.12c.75-.07,5.29,10.44,7.47,12.99,2.85,3.35,12.34,8.21,12.47,8.97,2.98,1.38,5.8,2.71,8.47,3.99.09-.5.19-.89.3-.89,5.11-.16,15.77-.5,20.47-.16.24.02.46.47.66,1.05,1.46,1.46,1.57,12.04.52,13.5-1.44.42-2.28.91-2.52,1.47-6.59,2.38-14.01,3.22-20.93,1-11.82-1.25-22.23-7.31-30.9-12.98-6.69-6.06-8.8-9.94-11.96-17.97-5.81-21.24-4.7-43.99,0-64.89.54-1.58,1.49-2.75,1.99-3.99,2.79-5.42,5.78-10.75,8.97-15.97.32-.58.55-1.24,1-2Z"/><path fill="#828282" d="M782.65,610.56c2.5-7.64-.18-16.13,1.49-23.95l48.35,30.95-2.05,3.42-46.29,29.51c-.9-7.56-.49-15.34-.49-22.95.76-5.28.98-10.7,0-15.97-1.31,1.27-1.81.65-1-1Z"/><path fill="#f1f5f9" d="M887.31,585.6c-.28.87-.62.86-1,0v-211.15s-2.99-.48-2.99-.48c.93-1.91,1.64-4.84,2.53-6.98.29-.71.4-3.09,1.47-1.51v220.11Z"/><path fill="#0d8995" d="M868.37,404.92c.61,59.23.81,118.46,0,177.69v2c.78-59.77-.35-121.08-.98-181.2-.02-1.69.64-4.44-1.01-5.48.68-.73,1.49-1.42,1.99-2v8.98Z"/><path fill="#f1f5f9" d="M713.87,476.8c-.47.54-.67,1.58-1.5,1.98l-.5-.98c.75-45.4-3.51-96.91-.04-141.29.42-5.31,2.26-12.39,4.02-17.43l-3.03,21.42c1.25,43.54-1.52,87.35,0,130.86.07,1.9-.1,3.78,1.04,5.44Z"/><path fill="#f1f5f9" d="M834.48,220.24c.19-1.98.62-6.17,2.63-6.85,3.17-1.08,15.26-.93,17.19,2.48,1.72,3.03,1.59,23.24,1.16,27.88-.8,8.78-7.81,8.45-15.44,7.35-4.88-.7-3.59-3.45-6.1-5.83-4.54-4.31-19.85-1.05-26.34-2.06.35-1.42,1.15-1.74,2.5-1.98,4.41-.8,20.15-.3,23.81,2.09,2.79,1.82,2.33,5.19,7.51,6.44,3.01.73,9.77.66,11.77-1.83,2.2-2.73,2.05-29.19-.67-32.24-2.07-2.31-14.96-1.26-15.92-.35-.26.25-.42,4.76-1.15,5.89-.4-.14-.87-1.02-.93-.99Z"/><path fill="#f1f5f9" d="M756.73,252.19c-1.07,1.42-1.94,3.01-3.62,3.87-3.39,1.73-23.07,1.66-27.78,1.12-6.39-.73-9.75-4.17-10.47-10.48-.65-5.7-.66-24.54,1-29.45,1.65,1.04,1,3.79,1.01,5.48.08,7.42-1.21,20.45,0,26.94,1.91,10.18,27.03,3.91,34.34,5.49l5.5-2.97Z"/><path fill="#f1f5f9" d="M818.53,209.26c.96-.35,2.68-5.46,2.79-6.79.61-7.26-4.2-8.7-10.23-9.22-6.44-.56-31.04-.89-36.25.7-7.38,2.26-2.16,8.28-5.15,13.31-2-4.39-1.39-12.86,3.94-14.52,4.4-1.37,33.5-1.04,39.46-.49,3.65.34,7.73.95,8.98,4.98,1.58,5.09,1.58,10.14-3.54,12.03Z"/><path fill="#f1f5f9" d="M731.81,506.74v1c-.82,24.79-1.15,49.74-1,74.87.83-.41,1.16.26,1,2-.16.51.11,1.37,0,2-.16.01-.55.85-.98,1.01-3.38-24.38,1.06-51.05-1.02-75.4-.24-2.81-.98-.2-2-1.48,1.6-2.73,2.65-3.21,3.99-4.99v1Z"/><path fill="#f1f5f9" d="M760.72,221.24v1c-3.56-3.11-5.14-9.31-8.49-9.96-7.75-1.5-19.65,1.08-27.91-.04l-6.46,2.02c4.86-5.38,24.96-4.93,32.3-3.9,6.75.95,7.96,5.54,10.56,10.89Z"/><path fill="#f1f5f9" d="M715.86,597.58c-6.43-16.31-5.72-48.14,0-64.89l-3.04,22.41c-.05,14.53-.66,28.34,3.04,42.47Z"/><path fill="#f1f5f9" d="M778.66,610.56c1.04-.07,3.15-.21,3.99,0,.52.13.71.63,1,1,.87,4.97.85,9.99,0,14.97-1.13,1.01-2.94.62-3.99,1-2.49-1.24,1.52-.62,2.02-3.47.59-3.37-.46-7.95-.02-11.51h-21.43c-.5,0-9.13-2.64-9.47-3.01-.59-.66,1.01-.92.99-.99,8.02,2.84,16.06,3.23,24.5,3.04,1.3-.03,2.22-1.03,2.41-1.04Z"/><path fill="#f1f5f9" d="M727.82,615.55c.92-2.44,2.66.35,3.49,1,8.78,6.99,21.17,11.43,32.39,10.99.09,1.76-3.79,1.01-4.98.99-11.38-.21-22.53-5.4-30.9-12.98Z"/><path fill="#f1f5f9" d="M869.36,618.55l10.48-13.96c3.54-5.89,5.05-12.36,6.46-18.98h1c-1.5,13.58-7.19,24.55-17.94,32.94Z"/><path fill="#f1f5f9" d="M760.72,222.24v-1c5.73,5.13,13.91,2.34,20.92,2.98.92-4.9.34-9.07.01-13.96,2.99,1.87,2.72,13.38,1.06,14.54-1.08.75-15.2.72-17.44.38-3.08-.47-2.9-1.5-4.55-2.94Z"/><path fill="#f1f5f9" d="M863.38,622.54c-8.84,4.69-17.83,6.79-27.9,5.98.18-1.64,2.77-1.82,3.98-2.98,5.59,3.82,14.07-.49,19.56-2.87,1.28-.55,3.43-2.17,4.36-.12Z"/><path fill="#f1f5f9" d="M781.65,243.2c-7.33.74-15.98-2.25-21.93,2.99.47-.99-.13-1.8,1.56-2.9,3.18-2.08,18.85-3.42,20.92-1.09.72.81-.56.9-.56.99Z"/><path fill="#0d8995" d="M774.67,609.56c-1.31-1.38-.92-1.75-1.06-3.41-.67-8.41-.63-22.67,0-31.11.13-1.71-.21-1.98,1.05-3.42v37.93Z"/><path fill="#f1f5f9" d="M781.65,250.19c0,.15,1.99,1.16-.64,1.86-5.12,1.36-10.71-1.94-14.31,5.13-.78.74-1.11.4-1-1,2.34-5.84,10.54-6.35,15.95-5.99Z"/><path fill="#f1f5f9" d="M719.85,311.09c3.25-6.23,6.29-10.74,10.96-15.97,2.45.93-.35,2.66-1.01,3.49-2.73,3.46-5.19,6.69-7.45,10.5-.29.49-1.72,4.21-2.51,1.98Z"/><path fill="#f1f5f9" d="M831.49,223.24c-.14.15,2.17,1.64-2.45,2.05-7.14.63-15.22-.56-22.47-.06-.26-.8.98-.9,1-.99,7.93-.42,16.2,1.03,23.92-1Z"/><path fill="#f1f5f9" d="M766.7,257.18c.7,4.81-.5,10.97-.01,15.97-1.81.25-.75-1.9-.99-2.99-.99-4.47-1.78-9.54,0-13.98.48.11.93.53,1,1Z"/><path fill="#f1f5f9" d="M726.83,512.73c-1.97,3.52-3.81,8.15-5.6,11.86l-3.37,4.12c2.27-5.55,4.39-11.84,8.97-15.97Z"/><path fill="#f1f5f9" d="M745.77,283.13c-1.93,1.55-4.41,4.23-6.47,5.99-.82.7-2.6,3.4-3.49.99,2.89-2.64,6.15-5.93,9.97-6.99Z"/><path fill="#ffffff" d="M783.64,627.53v-1c0-4.98,0-9.99,0-14.97,1.83,2.29,1.5,13.21,0,15.97Z"/><path fill="#828282" d="M801.58,160.35h-15.95c7.19-.91,8.8-.96,15.95,0Z"/><path fill="#f1f5f9" d="M781.65,210.26c-3.47-.08-6.78.61-9.97-1,1.62-1.38,8.06-.2,9.97,1Z"/><path fill="#f1f5f9" d="M818.53,209.26c-3.92,1.44-6.78,1.05-10.96,1,.76-2.34,8.79-.21,10.96-1Z"/><path fill="#0d8995" d="M731.81,584.61c-.19-.63-.94-1.46-1-2-.02-24.4.32-49.35,1-74.87v-1c1.65,1.04.99,3.79,1.01,5.48.19,15,2.47,61.13-1.01,72.39Z"/><path fill="#f1f5f9" d="M729.82,343.03c-.13,2.54,1.02,4.97,1,5.99-.95,34.87.54,70.88-1,105.81v-112.8,1Z"/><path fill="#f1f5f9" d="M783.64,284.13c-1.5-2.39-1.54-15.62-.56-17.03,3.92-1.57,22.98-2.85,25.28.27.28.38,1.2,5.4,1.23,6.33l-1.03,12.42c-2.69-4.91,1.68-17.83-4.48-18.97-2.05-.38-18.58-.2-19.5.44-2.09,1.46-.36,13.17-.93,16.53Z"/><path fill="#f1f5f9" d="M738.79,318.07c-4.63,7.97-6.49,16.21-8.97,24.96.02-.33-.02-.67,0-1,.55-11.57,3.47-15.78,8.97-24.96v1Z"/><path fill="#f1f5f9" d="M759.72,296.11c5.59-6.63,16.3-6.06,22.93-10.98-2.38,5.19-7.03,4.03-12.22,6.23-3.11,1.31-7.91,3.25-10.7,4.75Z"/><path fill="#f1f5f9" d="M752.74,301.1c-4.81,5.59-10.2,10.51-13.95,16.97v-1c5.36-8.93,5.41-9.74,13.95-15.97Z"/><path fill="#f1f5f9" d="M869.36,404.92c.01-1.82-.06-3.65,0-5.47.03-.87-.42-3.63,1-2.01v185.67s-1-.5-1-.5c-.69-59.21-1.01-118.48,0-177.69Z"/><path fill="#f1f5f9" d="M869.36,582.61h-1v-177.69h1c-.42,59.21.32,118.48,0,177.69Z"/><path fill="#0d8995" d="M730.81,582.61c-1.99-20.22-.28-48.38-.02-69.39.02-1.69-.64-4.44,1.01-5.48,0,23.11.3,46.28.02,69.39-.02,1.69.64,4.44-1.01,5.48Z"/></g></svg>
